<svg width="97" height="96" viewBox="0 0 97 96" fill="none" xmlns="http://www.w3.org/2000/svg">
<path d="M68.038 0H28.9617C24.8698 0 21.541 3.329 21.541 7.42074V88.5793C21.541 92.671 24.87 96 28.9617 96H68.038C72.1298 96 75.4588 92.671 75.4588 88.5793V7.42074C75.4588 3.329 72.1298 0 68.038 0ZM24.359 14.8415H72.6408V81.1585H24.359V14.8415ZM28.9617 2.818H68.038C70.5759 2.818 72.6408 4.88285 72.6408 7.42074V12.0235H24.359V7.42074C24.359 4.88285 26.4236 2.818 28.9617 2.818ZM68.038 93.182H28.9617C26.4238 93.182 24.359 91.1171 24.359 88.5793V83.9765H72.6408V88.5793C72.6408 91.1171 70.5759 93.182 68.038 93.182Z" fill="white"/>
<path d="M45.494 8.82972H51.5057C52.2839 8.82972 52.9147 8.19887 52.9147 7.42072C52.9147 6.64258 52.2839 6.01172 51.5057 6.01172H45.494C44.7158 6.01172 44.085 6.64258 44.085 7.42072C44.085 8.19887 44.7158 8.82972 45.494 8.82972Z" fill="white"/>
<path d="M40.9852 8.82972C41.3572 8.82972 41.7198 8.67943 41.9809 8.41641C42.2439 8.15528 42.3942 7.7927 42.3942 7.42072C42.3942 7.05062 42.2439 6.68616 41.9809 6.42503C41.7198 6.16201 41.3572 6.01172 40.9852 6.01172C40.6151 6.01172 40.2507 6.16201 39.9895 6.42503C39.7265 6.68616 39.5762 7.05062 39.5762 7.42072C39.5762 7.7927 39.7265 8.15528 39.9895 8.41641C40.2507 8.67924 40.6151 8.82972 40.9852 8.82972Z" fill="white"/>
<path d="M48.4999 85.6672C46.8942 85.6672 45.5879 86.9734 45.5879 88.5791C45.5879 90.1848 46.8942 91.4911 48.4999 91.4911C50.1055 91.4911 51.4118 90.1848 51.4118 88.5791C51.4118 86.9734 50.1055 85.6672 48.4999 85.6672ZM48.4999 88.6731C48.448 88.6731 48.4059 88.631 48.4059 88.5791C48.4059 88.5273 48.448 88.4852 48.4999 88.4852C48.5517 88.4852 48.5938 88.5273 48.5938 88.5791C48.5938 88.631 48.5517 88.6731 48.4999 88.6731Z" fill="white"/>
<path d="M68.038 18.0352H28.9617C28.1836 18.0352 27.5527 18.6661 27.5527 19.4442V28.4618C27.5527 29.24 28.1836 29.8708 28.9617 29.8708H68.038C68.8162 29.8708 69.447 29.24 69.447 28.4618V19.4442C69.447 18.6661 68.8162 18.0352 68.038 18.0352ZM66.629 27.0528H30.3707V20.8532H66.629V27.0528Z" fill="white"/>
<path d="M68.038 34.5675H28.9617C28.1836 34.5675 27.5527 35.1984 27.5527 35.9765C27.5527 36.7547 28.1836 37.3855 28.9617 37.3855H68.038C68.8162 37.3855 69.447 36.7547 69.447 35.9765C69.447 35.1984 68.8162 34.5675 68.038 34.5675Z" fill="white"/>
<path d="M63.5293 43.3972C64.3074 43.3972 64.9383 42.7664 64.9383 41.9882C64.9383 41.2101 64.3074 40.5792 63.5293 40.5792H33.4705C32.6924 40.5792 32.0615 41.2101 32.0615 41.9882C32.0615 42.7664 32.6924 43.3972 33.4705 43.3972H63.5293Z" fill="white"/>
<path d="M68.038 49.5969H40.9852C40.2071 49.5969 39.5762 50.2277 39.5762 51.0059C39.5762 51.784 40.2071 52.4149 40.9852 52.4149H68.038C68.8162 52.4149 69.447 51.784 69.447 51.0059C69.447 50.2277 68.8162 49.5969 68.038 49.5969Z" fill="white"/>
<path d="M31.9676 46.5909C29.5332 46.5909 27.5527 48.5714 27.5527 51.0058C27.5527 53.4402 29.5332 55.4207 31.9676 55.4207C34.4019 55.4207 36.3824 53.4402 36.3824 51.0058C36.3824 48.5714 34.4019 46.5909 31.9676 46.5909ZM31.9676 52.6026C31.087 52.6026 30.3707 51.8863 30.3707 51.0058C30.3707 50.1252 31.087 49.4089 31.9676 49.4089C32.8481 49.4089 33.5644 50.1252 33.5644 51.0058C33.5644 51.8863 32.8481 52.6026 31.9676 52.6026Z" fill="white"/>
<path d="M68.038 60.1174H40.9852C40.2071 60.1174 39.5762 60.7483 39.5762 61.5264C39.5762 62.3046 40.2071 62.9354 40.9852 62.9354H68.038C68.8162 62.9354 69.447 62.3046 69.447 61.5264C69.447 60.7483 68.8162 60.1174 68.038 60.1174Z" fill="white"/>
<path d="M31.9676 57.1116C29.5332 57.1116 27.5527 59.0921 27.5527 61.5264C27.5527 63.9608 29.5332 65.9413 31.9676 65.9413C34.4019 65.9413 36.3824 63.9608 36.3824 61.5264C36.3824 59.0921 34.4019 57.1116 31.9676 57.1116ZM31.9676 63.1233C31.087 63.1233 30.3707 62.407 30.3707 61.5264C30.3707 60.6459 31.087 59.9296 31.9676 59.9296C32.8481 59.9296 33.5644 60.6459 33.5644 61.5264C33.5644 62.407 32.8481 63.1233 31.9676 63.1233Z" fill="white"/>
<path d="M68.038 70.6379H40.9852C40.2071 70.6379 39.5762 71.2688 39.5762 72.0469C39.5762 72.8251 40.2071 73.4559 40.9852 73.4559H68.038C68.8162 73.4559 69.447 72.8251 69.447 72.0469C69.447 71.2688 68.8162 70.6379 68.038 70.6379Z" fill="white"/>
<path d="M31.9676 67.6321C29.5332 67.6321 27.5527 69.6126 27.5527 72.047C27.5527 74.4813 29.5332 76.4618 31.9676 76.4618C34.4019 76.4618 36.3824 74.4813 36.3824 72.047C36.3824 69.6126 34.4019 67.6321 31.9676 67.6321ZM31.9676 73.6438C31.087 73.6438 30.3707 72.9275 30.3707 72.047C30.3707 71.1664 31.087 70.4501 31.9676 70.4501C32.8481 70.4501 33.5644 71.1664 33.5644 72.047C33.5644 72.9275 32.8481 73.6438 31.9676 73.6438Z" fill="white"/>
</svg>
