<svg width="800" height="800" viewBox="0 0 800 800" fill="none" xmlns="http://www.w3.org/2000/svg">
<path d="M538.936 671.286C534.791 668.763 531.179 665.382 528.308 661.284C526.982 659.394 525.862 657.396 524.934 655.331H53.8793V191.033H693.268V494.203C706.918 495.436 718.371 504.401 723.18 516.677C727.438 514.344 732.183 512.901 737.171 512.461C740.544 512.168 743.896 512.378 747.146 513.02V75.3668C747.146 50.6084 727.007 30.4661 702.251 30.4661H44.8988C20.1424 30.4661 0 50.6084 0 75.3668V664.313C0 689.071 20.1424 709.212 44.8988 709.212H534.844C531.021 701.47 530.114 692.729 532.364 684.32C533.661 679.483 535.905 675.071 538.936 671.286ZM643.963 105.863C643.963 96.7074 651.385 89.2833 660.541 89.2833H677.119C686.277 89.2833 693.697 96.7055 693.697 105.863V124.653C693.697 133.809 686.275 141.231 677.119 141.231H660.541C651.383 141.231 643.963 133.809 643.963 124.653V105.863ZM566.874 105.863C566.874 96.7074 574.296 89.2833 583.452 89.2833H600.032C609.19 89.2833 616.61 96.7055 616.61 105.863V124.653C616.61 133.809 609.188 141.231 600.032 141.231H583.452C574.296 141.231 566.874 133.809 566.874 124.653V105.863ZM489.783 105.863C489.783 96.7074 497.207 89.2833 506.361 89.2833H522.939C532.097 89.2833 539.519 96.7055 539.519 105.863V124.653C539.519 133.809 532.097 141.231 522.939 141.231H506.361C497.207 141.231 489.783 133.809 489.783 124.653V105.863Z" fill="white"/>
<path d="M799.894 639.667L794.912 611.415C794.24 607.61 790.614 605.069 786.806 605.74L761.682 610.167C758.666 603.09 754.814 596.46 750.242 590.392L766.652 570.831C767.845 569.414 768.426 567.575 768.266 565.725C768.102 563.876 767.21 562.169 765.789 560.974L743.816 542.533C742.395 541.34 740.553 540.761 738.705 540.923C736.855 541.085 735.148 541.975 733.955 543.396L717.56 562.942C710.83 559.513 703.63 556.869 696.088 555.124V529.611C696.088 525.747 692.954 522.612 689.091 522.612H660.4C656.539 522.612 653.403 525.747 653.403 529.611V555.124C645.857 556.867 638.665 559.513 631.931 562.942L615.532 543.398C613.048 540.437 608.636 540.053 605.673 542.535L583.698 560.974C582.277 562.169 581.387 563.876 581.224 565.725C581.064 567.575 581.643 569.416 582.835 570.837L599.247 590.394C594.683 596.46 590.823 603.093 587.807 610.169L562.683 605.74C558.885 605.071 555.252 607.61 554.577 611.415L549.597 639.667C549.275 641.494 549.693 643.372 550.754 644.895C551.823 646.417 553.44 647.451 555.269 647.773L580.412 652.204C580.822 659.994 582.178 667.531 584.361 674.707L562.262 687.462C560.654 688.385 559.483 689.917 559.001 691.708C558.521 693.501 558.774 695.409 559.7 697.017L574.043 721.861C574.967 723.469 576.499 724.641 578.29 725.121C578.886 725.281 579.494 725.359 580.101 725.359C581.319 725.359 582.525 725.043 583.599 724.422L605.715 711.652C610.916 717.225 616.787 722.162 623.204 726.338L614.471 750.329C613.838 752.074 613.92 753.998 614.705 755.68C615.49 757.363 616.909 758.664 618.653 759.296L645.606 769.105C646.379 769.387 647.191 769.532 648 769.532C649.01 769.532 650.025 769.313 650.961 768.875C652.643 768.092 653.94 766.671 654.575 764.926L663.306 740.935C667.049 741.388 670.859 741.623 674.725 741.623C678.59 741.623 682.4 741.385 686.144 740.935L694.876 764.926C695.509 766.671 696.812 768.092 698.49 768.875C699.424 769.311 700.435 769.532 701.451 769.532C702.259 769.532 703.07 769.391 703.844 769.105L730.8 759.296C732.54 758.664 733.961 757.359 734.744 755.68C735.529 753.998 735.613 752.074 734.978 750.329L726.245 726.342C732.656 722.166 738.527 717.225 743.734 711.656L765.85 724.426C766.923 725.043 768.13 725.363 769.348 725.363C769.954 725.363 770.567 725.281 771.159 725.125C772.952 724.645 774.48 723.469 775.406 721.865L789.749 697.017C790.675 695.413 790.928 693.501 790.448 691.708C789.966 689.921 788.795 688.389 787.187 687.462L765.092 674.711C767.275 667.533 768.628 659.996 769.037 652.208L794.18 647.775C796.009 647.453 797.632 646.419 798.695 644.896C799.799 643.372 800.216 641.494 799.894 639.667ZM674.747 684.562C653.496 684.562 636.265 667.331 636.265 646.078C636.265 624.825 653.498 607.595 674.747 607.595C696 607.595 713.232 624.825 713.232 646.078C713.232 667.331 696 684.562 674.747 684.562Z" fill="white"/>
<path d="M313.757 448.403C313.757 439.35 308.451 431.035 300.238 427.221L225.073 392.297L300.24 357.369C308.451 353.551 313.757 345.238 313.757 336.189V335.581C313.757 327.56 309.72 320.197 302.964 315.894C299.227 313.507 294.873 312.244 290.379 312.244C286.992 312.244 283.592 312.989 280.549 314.402L160.381 370.284C152.172 374.101 146.87 382.415 146.87 391.462V393.133C146.87 402.169 152.17 410.477 160.383 414.314L280.563 470.201C283.67 471.639 286.979 472.369 290.397 472.369C294.851 472.369 299.19 471.104 302.964 468.704C309.724 464.383 313.758 457.026 313.758 449.015L313.757 448.403Z" fill="white"/>
<path d="M432.323 255.303C427.939 249.302 420.889 245.72 413.461 245.72H412.862C402.663 245.72 393.72 252.245 390.613 261.944L311.438 507.264C309.184 514.347 310.453 522.149 314.831 528.148C319.215 534.145 326.265 537.728 333.693 537.728H334.293C344.489 537.728 353.426 531.202 356.529 521.505L435.695 276.204C437.969 269.126 436.708 261.313 432.323 255.303Z" fill="white"/>
<path d="M586.765 370.282L466.595 314.4C463.562 312.991 460.167 312.246 456.78 312.246C452.288 312.246 447.933 313.505 444.197 315.888C437.43 320.199 433.394 327.561 433.394 335.581V336.189C433.394 345.23 438.695 353.546 446.914 357.379L522.077 392.299L446.912 427.221C438.699 431.035 433.394 439.35 433.394 448.403V449.015C433.394 457.026 437.43 464.381 444.193 468.706C447.954 471.102 452.298 472.369 456.757 472.369C460.171 472.369 463.477 471.639 466.605 470.195L586.781 414.308C594.986 410.481 600.284 402.171 600.284 393.135V391.464C600.278 382.415 594.976 374.101 586.765 370.282Z" fill="white"/>
</svg>
