<svg width="97" height="96" viewBox="0 0 97 96" fill="none" xmlns="http://www.w3.org/2000/svg">
<path d="M95.3833 4.80005H1.61667C0.646667 4.80005 0 5.44005 0 6.40005V72C0 72.96 0.646667 73.6 1.61667 73.6H46.8833V81.6H42.0333C41.0633 81.6 40.4167 82.24 40.4167 83.2V89.6001C40.4167 90.5601 41.0633 91.2001 42.0333 91.2001H54.9667C55.9367 91.2001 56.5833 90.5601 56.5833 89.6001V83.2C56.5833 82.24 55.9367 81.6 54.9667 81.6H50.1167V73.6H95.3833C96.3533 73.6 97 72.96 97 72V6.40005C97 5.44005 96.3533 4.80005 95.3833 4.80005ZM53.35 88.0001H43.65V84.8001H53.35V88.0001ZM93.7667 8.00005V60.8H3.23333V8.00005H93.7667ZM3.23333 70.4V64H93.7667V70.4H3.23333Z" fill="white"/>
<path d="M11.3169 56.0001H53.3502C54.3202 56.0001 54.9669 55.3601 54.9669 54.4001V16.0001C54.9669 15.0401 54.3202 14.4001 53.3502 14.4001H11.3169C10.3469 14.4001 9.7002 15.0401 9.7002 16.0001V54.4001C9.7002 55.3601 10.3469 56.0001 11.3169 56.0001ZM12.9335 28.8001H22.6335V52.8001H12.9335V28.8001ZM25.8669 52.8001V28.8001H51.7335V52.8001H25.8669ZM51.7335 25.6001H25.8669V17.6001H51.7335V25.6001ZM22.6335 17.6001V25.6001H12.9335V17.6001H22.6335Z" fill="white"/>
<path d="M19.4003 32H16.167V35.2H19.4003V32Z" fill="white"/>
<path d="M19.4003 40H16.167V43.2H19.4003V40Z" fill="white"/>
<path d="M19.4003 46.4001H16.167V49.6001H19.4003V46.4001Z" fill="white"/>
<path d="M87.3003 36.8H61.4336V40H87.3003V36.8Z" fill="white"/>
<path d="M87.3003 44.8H61.4336V48H87.3003V44.8Z" fill="white"/>
<path d="M87.3003 52.8H61.4336V56H87.3003V52.8Z" fill="white"/>
<path d="M63.0503 32.0001H85.6836C86.6536 32.0001 87.3003 31.3601 87.3003 30.4001V16.0001C87.3003 15.0401 86.6536 14.4001 85.6836 14.4001H63.0503C62.0803 14.4001 61.4336 15.0401 61.4336 16.0001V30.4001C61.4336 31.3601 62.0803 32.0001 63.0503 32.0001ZM64.6669 17.6001H84.0669V28.8001H64.6669V17.6001Z" fill="white"/>
</svg>
